<svg width="256" height="263" viewBox="0 0 256 263" fill="none" xmlns="http://www.w3.org/2000/svg">
<path fill-rule="evenodd" clip-rule="evenodd" d="M22.1025 0.403625C15.9349 1.00325 12.2671 2.07233 9.20642 4.16381C6.02499 6.33775 4.32052 8.64384 2.22705 13.6043C2.22705 13.6043 0.890813 15.6975 0.70291 17.2174C0.240281 20.9594 0.499227 35.7113 0.499227 35.7113C0.386953 45.8835 0.198671 59.571 0.0799389 66.1286C-0.0387933 72.6862 0.0387055 81.7401 0.252324 86.2485C0.466936 90.7896 0.442097 95.9358 0.196684 97.7874C-0.072575 99.8202 -0.0596585 102.545 0.229969 104.742C1.10531 111.381 1.24143 137.315 0.464949 149.521C-0.0666135 157.877 -0.132189 162.54 0.216059 167.157C0.475878 170.61 0.533009 176.788 0.342243 180.886C0.151476 184.985 0.0392023 191.915 0.0923586 196.287C0.145515 200.659 0.264744 213.625 0.357146 225.101C0.500221 242.885 0.643792 246.266 1.32936 248.001C4.51774 256.072 8.26898 260.059 14.1539 261.635C16.2931 262.208 22.5168 262.224 115.995 261.91C120.23 261.896 132.526 262.032 143.319 262.213C154.938 262.407 169.51 262.318 179.045 261.993C191.656 261.563 197.203 261.583 204.629 262.081C214.413 262.738 216.364 262.746 231.509 262.191C240.296 261.869 240.523 261.833 243.726 260.256C247.703 258.298 251.202 255.298 252.911 252.382C255.582 247.825 255.62 247.26 255.225 218.642C255.025 204.161 254.922 184.824 254.996 175.67C255.07 166.517 255.179 145.726 255.238 129.469C255.297 113.212 255.545 96.4222 255.791 92.1588C256.114 86.5764 256.067 82.8932 255.622 78.9939C254.976 73.3216 254.903 68.1078 255.021 36.2453C255.09 17.7852 255.04 16.6232 254.052 13.4219C253.17 10.5694 252.539 9.58078 249.954 7.0099C244.438 1.52289 239.501 -0.00225019 229.014 0.539745C219.652 1.02411 206.137 0.888986 200.858 0.258066C197.761 -0.11204 193.635 -0.0862072 186.203 0.349475C173.124 1.11602 171.911 1.11751 154.496 0.387231C144.248 -0.0419932 136.648 -0.0787554 128.167 0.261544C121.098 0.544713 105.709 0.582965 90.3681 0.35494C76.1361 0.143805 63.0582 0.155231 61.306 0.380773C59.5533 0.606314 54.5427 0.672387 50.171 0.527325C35.2505 0.0325249 26.3282 -0.00672126 22.1025 0.403625Z" fill="#CCD1D0"/>
</svg>
