<svg xmlns="http://www.w3.org/2000/svg" width="713" height="675" viewBox="0 0 713 675" fill="none"><metadata><rdf:RDF xmlns:rdf="http://www.w3.org/1999/02/22-rdf-syntax-ns#" xmlns:dc="http://purl.org/dc/elements/1.1/"><rdf:Description><dc:creator>RealFaviconGenerator</dc:creator><dc:source>https://realfavicongenerator.net</dc:source></rdf:Description></rdf:RDF></metadata><path opacity="0.75" fill-rule="evenodd" clip-rule="evenodd" d="M364.377 669.688C364.377 668.397 282.257 638.26 273.337 638.26C238.708 638.26 173.194 608.681 173.194 567.418C173.194 554.696 154.986 551.217 154.986 538.495C154.986 534.104 152.938 530.508 150.434 530.508C143.64 530.508 142.199 503.57 154.986 503.57C167.101 503.57 178.703 521.528 190.396 521.528C203.284 521.528 206.831 539.487 219.72 539.487C231.413 539.487 243.015 557.446 255.13 557.446C260.137 557.446 264.233 559.466 264.233 561.936C264.233 570.587 291.545 562.263 291.545 570.915C291.545 575.874 382.585 592.667 382.585 579.894C382.585 577.425 388.279 575.405 395.234 575.405C402.663 575.405 410.593 571.696 414.448 566.425C418.058 561.487 423.834 557.446 427.285 557.446C443.077 557.446 450.106 530.508 466.345 530.508C474.543 530.508 472.54 521.528 480.525 521.528C488.919 521.528 555.559 456.679 555.559 448.513C555.559 445.312 559.656 439.785 564.663 436.224C586.931 420.391 580.33 379.154 601.079 364.389C615.36 354.235 631.401 293.792 623.839 288.065C616.561 282.553 639.749 234.188 623.839 234.188C617.037 234.188 617.037 180.312 623.839 180.312C635.022 180.312 636.16 126.436 642.047 126.436C655.75 126.436 637.495 102.343 637.495 99.4979C637.495 94.5592 639.543 90.5185 642.047 90.5185C651.232 90.5185 641.965 54.601 651.151 54.601C653.654 54.601 655.703 56.6213 655.703 59.0906C655.703 61.56 659.799 63.5803 664.806 63.5803C692.621 63.5803 694.014 171.333 705.774 171.333C724.501 171.333 694.227 288.065 705.774 288.065C712.521 288.065 712.521 332.962 705.774 332.962C704.798 332.962 683.014 366.631 683.014 369.871C683.014 374.262 680.966 377.858 678.462 377.858C669.277 377.858 678.544 413.776 669.358 413.776C659.933 413.776 669.679 458.673 660.254 458.673C651.292 458.673 647.889 503.57 642.047 503.57C628.081 503.57 619.287 524.515 619.287 538.306C619.287 545.252 553.265 611.322 546.323 611.322C526.857 611.322 523.26 639.341 512.639 649.803C495.5 666.717 463.177 641.535 455.762 651.729C451.469 657.633 450.336 657.651 446.567 651.873C442.948 646.319 440.895 646.849 433.517 655.24C429.99 659.251 409.896 665.799 409.896 669.688C409.896 676.344 364.377 676.344 364.377 669.688ZM273.337 472.142C273.337 468.783 198.257 431.735 191.402 431.735C182.246 431.735 183.337 422.755 175.147 422.755C165.947 422.755 154.986 411.944 154.986 402.871C154.986 398.991 152.938 395.817 150.434 395.817C138.69 395.817 138.308 315.003 132.226 315.003C125.104 315.003 120.797 280.564 112.881 277.954C108.726 276.581 145.882 239.255 145.882 232.294C145.882 224.254 154.986 226.265 154.986 218.358C154.986 209.446 193.628 171.333 202.664 171.333C213.384 171.333 225.248 153.374 236.922 153.374C241.929 153.374 246.026 151.354 246.026 148.884C246.026 142.229 291.545 142.229 291.545 148.884C291.545 151.354 294.672 153.374 298.492 153.374C310.231 153.374 346.169 192.205 346.169 204.889C346.169 211.125 348.217 216.23 350.721 216.23C365.43 216.23 346.169 250.358 346.169 254.54C346.169 281.752 311.808 297.044 289.419 297.044C285.883 297.044 246.026 283.856 246.026 292.554C246.026 295.131 209.17 309.618 222.169 313.894C225.278 314.918 227.818 320.777 227.818 326.923C227.818 339.584 237.34 350.92 247.978 350.92C251.911 350.92 255.13 352.941 255.13 355.41C255.13 366.48 346.169 372.182 346.169 355.41C346.169 352.941 349.815 350.92 354.267 350.92C358.723 350.92 365.319 346.88 368.929 341.941C377.283 330.511 400.792 331.758 400.792 314.069C400.792 310.733 404.889 305.094 409.896 301.534C420.062 294.306 423.803 234.188 414.448 234.188C411.945 234.188 409.896 228.127 409.896 220.719C409.896 208.974 400.792 206.232 400.792 194.773C400.792 170.639 341.336 108.477 317.032 108.477C313.026 108.477 309.753 106.457 309.753 103.987C309.753 97.0614 218.714 97.0614 218.714 103.987C218.714 106.457 214.617 108.477 209.61 108.477C164.729 108.477 148.054 172.817 118.571 193.781C113.227 197.584 109.467 205.405 109.467 212.732C109.467 237.565 82.1549 259.832 82.1549 283.575C82.1549 302.557 54.8431 316.421 54.8431 333.954C54.8431 345.941 33.8449 344.087 20.4985 330.919C16.9526 327.421 8.7029 306.023 4.77146 306.023C-1.59049 306.023 -1.59049 288.065 4.77146 288.065C7.27504 288.065 9.32342 279.983 9.32342 270.106C9.32342 255.548 18.4274 248.747 18.4274 234.188C18.4274 216.254 15.1694 117.457 46.686 117.457C58.0113 117.457 60.846 99.4979 72.2316 99.4979C87.5842 99.4979 94.4535 72.5598 109.376 72.5598C127.895 72.5598 137.478 36.6422 156.907 36.6422C160.858 36.6422 164.09 34.6219 164.09 32.1525C164.09 19.3108 236.922 14.342 236.922 5.21442C236.922 -4.75814 355.273 0.304043 355.273 14.1938C355.273 16.2827 398.357 45.6216 402.618 45.6216C406.624 45.6216 409.896 47.6419 409.896 50.1113C409.896 58.7629 437.208 50.439 437.208 59.0906C437.208 61.56 440.426 63.5803 444.359 63.5803C453.559 63.5803 464.52 74.3916 464.52 83.4652C464.52 87.3443 466.568 90.5185 469.072 90.5185C471.58 90.5185 473.624 102.16 473.624 116.464C473.624 133.366 485.633 164.942 500.936 175.823C526.779 194.199 510.04 216.636 510.04 237.686C510.04 245.013 506.28 252.834 500.936 256.637C495.979 260.161 491.558 279.085 487.28 279.085C477.173 279.085 488.283 350.92 478.176 350.92C475.672 350.92 473.624 354.961 473.624 359.9C473.624 371.397 455.416 383.112 455.416 393.644C455.416 397.389 440.085 415.572 421.349 434.051L387.282 467.652C374.525 467.652 273.337 482.406 273.337 472.142Z" fill="#E7E9E9"></path></svg>